<svg width="35" height="39" viewBox="0 0 35 39" fill="none" xmlns="http://www.w3.org/2000/svg">
<path fill-rule="evenodd" clip-rule="evenodd" d="M1.64627 0.17567C1.64627 0.385195 1.60137 0.38519 1.40681 0.235529C1.22722 0.0709026 1.18232 0.0709026 1.22721 0.235529C1.25715 0.355258 1.16735 0.460025 1.04762 0.474991C0.359185 0.534856 0.239455 0.564784 0.419048 0.639614C0.718369 0.759343 0.628572 0.983837 0.269387 0.998803C-0.0449 0.998803 -0.0448991 1.01377 0.209524 1.11853C0.478913 1.22329 0.478911 1.23826 0.25442 1.32806C0.10476 1.38792 0 1.58247 0 1.80696C0 2.37567 0.314283 3.52806 0.463944 3.52806C0.538774 3.52806 0.598638 3.64779 0.613604 3.78249C0.613604 4.00698 0.64354 4.00697 0.748303 3.75255C0.868031 3.4682 0.882996 3.4682 0.882996 3.78249C0.897962 4.03691 0.987758 4.1267 1.24218 4.1267C1.4966 4.1267 1.52653 4.15664 1.36191 4.2614C1.24218 4.33623 1.06259 4.36617 0.942859 4.32127C0.838097 4.27637 0.748303 4.3512 0.748303 4.48589C0.748303 4.62059 0.808167 4.72534 0.897963 4.72534C0.972793 4.72534 1.13742 4.9648 1.25715 5.24916C1.37688 5.53351 1.5864 5.81787 1.70613 5.86277C1.84082 5.90767 1.90069 6.01243 1.85579 6.08726C1.81089 6.16209 2.00545 6.59611 2.27484 7.06005C2.54423 7.524 2.90341 8.15257 3.083 8.4519C3.9211 9.9036 4.98369 11.5648 5.20818 11.7594C5.34288 11.8791 5.5524 12.1635 5.6422 12.388C5.74696 12.6274 5.89662 12.807 5.98642 12.807C6.06125 12.807 6.13608 12.8968 6.13608 13.0016C6.13608 13.1063 6.3456 13.4356 6.60003 13.7199C6.85445 14.0043 7.12384 14.3635 7.19867 14.5281C7.2735 14.6927 7.93201 15.6057 8.66534 16.5485C9.66807 17.8206 9.96739 18.3145 9.84766 18.4492C9.7429 18.5839 9.7429 18.6438 9.86263 18.6438C9.96739 18.6438 9.99732 18.7186 9.95243 18.7934C9.89256 18.8832 9.80276 18.9132 9.7429 18.8832C9.6082 18.7934 8.80004 19.4669 8.91976 19.5717C8.96466 19.6166 8.84494 19.8261 8.65038 20.0356C7.9769 20.754 7.66262 21.173 7.75241 21.2628C7.79731 21.3077 7.75241 21.3377 7.66262 21.3377C7.55785 21.3377 7.48303 21.4125 7.48303 21.4873C7.48303 21.5771 7.34833 21.8016 7.18371 21.9812C7.01908 22.1608 6.91432 22.4003 6.95921 22.505C7.00411 22.6397 6.95921 22.6846 6.82452 22.6397C6.55513 22.535 6.22588 22.9091 6.34561 23.2084C6.3905 23.3431 6.24084 23.5526 5.91159 23.7771C5.62724 23.9717 5.41771 24.1663 5.46261 24.2111C5.50751 24.256 5.44764 24.3758 5.31295 24.4805C5.19322 24.5853 5.08846 24.7948 5.08846 24.9295C5.08846 25.3486 4.92383 25.6928 4.77417 25.588C4.69934 25.5431 4.63948 25.603 4.63948 25.7227C4.63948 25.8425 4.47485 26.052 4.26533 26.1867C4.0558 26.3214 3.90614 26.486 3.9211 26.5459C3.98097 26.8152 3.68165 27.4737 3.50206 27.4737C3.38233 27.4737 3.29253 27.5785 3.29253 27.6982C3.29253 27.8329 3.18777 28.1023 3.05307 28.2969C2.91838 28.4914 2.85852 28.7159 2.90341 28.8057C2.94831 28.8806 2.88845 28.9704 2.76872 29.0302C2.64899 29.0751 2.54423 29.2098 2.54423 29.3445C2.54423 29.4642 2.45443 29.569 2.3347 29.569C2.12518 29.569 1.87076 29.9731 1.93062 30.2275C1.94559 30.3023 1.90069 30.4071 1.82586 30.452C1.6313 30.5717 1.04762 31.754 1.04762 32.0234C1.04762 32.1432 0.942861 32.3377 0.823133 32.4724C0.703404 32.5921 0.56871 32.8765 0.523812 33.116C0.49388 33.3404 0.389117 33.8343 0.299321 34.2085C0.224491 34.5826 0.119728 35.3309 0.0598633 35.8847C-9.14347e-07 36.7377 0.0299294 36.9024 0.25442 37.0371C0.424035 37.1368 0.429025 37.1917 0.269387 37.2017C-0.059866 37.2017 -0.0748339 37.4411 0.239453 37.5609C0.359182 37.6058 0.419049 37.7255 0.359184 37.8153C0.29932 37.9201 0.374151 37.9201 0.598642 37.8003C0.823133 37.6806 0.89796 37.6806 0.838095 37.7854C0.688435 38.0248 0.927893 37.9799 1.31701 37.7105C1.51157 37.5758 1.6313 37.3813 1.5864 37.2765C1.55647 37.1717 1.61633 37.0371 1.73606 36.9922C1.85579 36.9473 1.94559 36.9922 1.94559 37.0969C1.96055 37.2017 2.03538 37.1717 2.15511 37.0071C2.25987 36.8724 2.43947 36.7527 2.54423 36.7527C2.76872 36.7527 3.51702 36.169 3.51702 36.0044C3.51702 35.9296 3.78641 35.6751 4.11566 35.4357C4.74424 34.9717 7.18371 32.6221 7.18371 32.4724C7.18371 32.4275 7.40819 32.1731 7.67758 31.9187C7.93201 31.6493 8.56058 30.9608 9.05446 30.3921C9.54834 29.8234 10.1171 29.1799 10.3266 28.9704C10.5361 28.7608 10.8953 28.3567 11.1198 28.0574C11.3443 27.7581 12.2572 26.7554 13.1552 25.8275C14.547 24.3758 14.8164 24.1513 14.996 24.3458C15.1007 24.4656 15.5497 25.0044 15.9688 25.5431C16.4028 26.0819 17.0164 26.7703 17.3457 27.0697C17.6599 27.354 17.9443 27.6533 17.9742 27.7431C18.1538 28.2071 20.5035 30.7812 20.6681 30.6765C20.743 30.6316 20.8028 30.7064 20.8028 30.8261C20.8028 30.9608 20.9076 31.0656 21.0273 31.0656C21.147 31.0656 21.2518 31.1255 21.2518 31.2153C21.2518 31.2901 21.3566 31.32 21.4763 31.2751C21.596 31.2153 21.7008 31.2602 21.7008 31.35C21.7008 31.4398 21.6559 31.4996 21.596 31.4996C21.2668 31.4398 21.2368 31.5445 21.4763 31.8139C21.6259 31.9785 21.8355 32.1132 21.9253 32.1132C22.03 32.1132 22.1498 32.2479 22.1947 32.4125C22.2395 32.5772 22.4341 32.7717 22.6287 32.8466C22.8083 32.9364 22.913 32.9962 22.8382 32.9962C22.6736 33.0112 24.1851 34.5078 24.3498 34.5078C24.4246 34.5078 24.7688 34.7772 25.143 35.1064C25.5171 35.4357 26.0559 35.8098 26.3402 35.9296C26.6246 36.0643 26.9688 36.2289 27.0886 36.3187C27.2083 36.3935 27.4926 36.5731 27.7171 36.7228C27.9566 36.8575 28.1362 37.082 28.1511 37.2017C28.1511 37.3214 28.211 37.2765 28.3008 37.082C28.3756 36.8874 28.4954 36.7826 28.5852 36.8275C28.6899 36.8874 28.6899 37.0221 28.5852 37.2167C28.4505 37.4561 28.4804 37.501 28.8096 37.501C29.0192 37.501 29.1838 37.5758 29.1838 37.6656C29.1838 37.7405 29.1239 37.7704 29.0341 37.7255C28.7947 37.5758 28.8545 37.8901 29.109 38.0996C29.2886 38.2493 29.3484 38.2343 29.4233 38.0398C29.4981 37.8452 29.558 37.8303 29.7375 37.9799C29.8573 38.0847 30.0967 38.1894 30.2763 38.2044C30.4559 38.2343 30.6355 38.3391 30.6954 38.4289C30.86 38.6833 31.2791 38.7133 31.3688 38.4738C31.4137 38.3541 31.5484 38.3092 31.6682 38.3541C31.8029 38.399 31.8777 38.3241 31.8777 38.1146C31.8777 37.935 31.8178 37.8003 31.743 37.8003C31.6682 37.8003 31.5634 37.5908 31.5035 37.3513C31.4137 36.9173 31.2192 36.7677 31.0845 37.0071C31.0546 37.082 31.0546 37.0371 31.0695 36.9323C31.0995 36.8425 31.0546 36.7527 30.9797 36.7527C30.8899 36.7527 30.8301 36.6629 30.8301 36.5432C30.8301 36.4235 30.7103 36.2289 30.5756 36.1241C30.426 36.0194 30.2913 35.8398 30.2614 35.735C30.2464 35.6452 30.0967 35.4207 29.9171 35.2411C29.4831 34.8071 29.6178 34.4928 30.3212 34.2384C30.7702 34.0738 30.9797 33.8942 31.0995 33.55C31.2641 33.1459 31.2491 33.0561 31.0246 32.8915C30.7852 32.7119 30.7852 32.667 30.9797 32.5173C31.2341 32.3228 31.1593 31.2751 30.9049 31.32C30.8151 31.335 30.7552 31.1255 30.7702 30.871C30.7702 30.3323 30.6205 29.9581 30.2165 29.5091C30.0518 29.3445 29.9321 29.1799 29.9171 29.135C29.9171 29.0901 29.8872 28.9105 29.8722 28.7459C29.7974 28.2071 29.7076 28.0275 29.4532 27.7431C29.3035 27.5935 29.1838 27.369 29.1838 27.2493C29.1838 26.935 28.4654 25.8724 28.196 25.7676C28.0763 25.7227 27.9865 25.588 28.0164 25.4833C28.0613 25.2887 27.777 24.8397 27.1933 24.1363C27.0437 23.9567 26.8192 23.5826 26.6845 23.2982C26.5498 23.0288 26.3103 22.7594 26.1607 22.7145C26.011 22.6846 25.9062 22.5649 25.9362 22.4751C25.9661 22.3853 25.7715 22.0111 25.4872 21.652C25.2178 21.2928 24.9933 20.9485 24.9933 20.8887C24.9933 20.8288 24.7239 20.4397 24.3947 20.0506C24.0654 19.6465 23.796 19.2724 23.796 19.2125C23.796 19.1377 23.4817 18.7036 23.1076 18.2397C21.9103 16.773 21.8953 16.8927 23.4668 15.3812C24.23 14.6628 25.4273 13.5403 26.1457 12.8818C26.8641 12.2233 27.6573 11.4601 27.9117 11.1757C28.1511 10.8914 28.4954 10.5322 28.66 10.3825C29.9471 9.2002 31.728 7.41923 31.6233 7.41923C31.5634 7.41923 31.6682 7.32944 31.8777 7.22468C32.0722 7.11992 32.4614 6.74576 32.7308 6.37161C33.0151 5.99746 33.3743 5.53351 33.524 5.35392C33.6886 5.15936 33.8233 4.93487 33.8233 4.86004C33.8233 4.78521 33.943 4.72534 34.0927 4.72534C34.3022 4.72534 34.3172 4.69541 34.1226 4.57568C33.928 4.45596 33.943 4.42602 34.1675 4.42602C34.3022 4.42602 34.5117 4.2614 34.6015 4.05187C34.6913 3.84235 34.826 3.67772 34.9008 3.67772C34.9757 3.67772 35.0206 3.52806 34.9906 3.3335C34.9607 3.12398 34.826 2.98928 34.6165 2.95935C34.4219 2.92942 34.2723 2.83963 34.2723 2.7648C34.2723 2.68997 34.1825 2.6301 34.0627 2.6301C33.7634 2.6301 32.4165 3.24371 32.2967 3.43827C32.2369 3.52806 32.177 3.55799 32.177 3.48316C32.177 3.4233 31.9076 3.54303 31.5784 3.75255C30.9199 4.1716 30.6804 4.21651 30.6804 3.94712C30.6804 3.75256 31.6981 2.77976 31.8927 2.77976C31.9525 2.77976 32.0573 2.64506 32.1022 2.48044C32.162 2.31581 32.2369 2.21105 32.2967 2.24098C32.3566 2.27092 32.5063 2.19608 32.626 2.06139C32.8205 1.85186 32.8056 1.8369 32.5811 1.9267C32.3865 2.00153 32.3267 1.94167 32.3267 1.70221C32.3267 1.52262 32.2818 1.43282 32.2219 1.47772C32.177 1.53758 32.0573 1.46275 31.9525 1.32806C31.7879 1.11853 31.6981 1.10357 31.0845 1.29812C30.6954 1.40289 30.3811 1.55254 30.3811 1.61241C30.3811 1.67227 30.2763 1.73213 30.1566 1.73213C30.0369 1.73213 29.7226 1.97159 29.4382 2.25595C29.1539 2.5403 28.8546 2.77976 28.7498 2.77976C28.645 2.77976 28.4056 2.94438 28.196 3.15391C27.777 3.58792 26.2804 4.72534 26.1607 4.72534C25.9661 4.72534 24.9933 5.69815 24.9933 5.8927C24.9933 6.01243 24.8885 6.05733 24.7239 6.01243C24.5443 5.95257 24.3198 6.08726 24.0205 6.46141C23.7661 6.76073 23.4219 7.06005 23.2273 7.13489C23.0328 7.20972 22.928 7.32944 22.9729 7.41923C23.0178 7.49406 23.0178 7.5689 22.943 7.5689C22.7334 7.5689 20.5484 9.43966 18.9769 10.9812C18.6627 11.2655 18.3035 11.5349 18.1688 11.5499C17.9293 11.5798 17.9293 11.5499 18.1389 10.8614C18.1838 10.7417 18.1837 10.6818 18.1538 10.7417C18.0042 10.9961 17.645 10.8315 17.1212 10.2628C16.7171 9.82877 16.5225 9.70904 16.4327 9.84374C16.3579 9.97843 16.313 9.88863 16.313 9.61925C16.313 9.39475 16.2531 9.21516 16.1633 9.21516C16.0885 9.21516 16.0137 9.1553 16.0137 9.0655C16.0137 8.88591 15.2953 8.16754 15.1157 8.16754C15.0259 8.16754 14.966 8.03284 14.966 7.86822C14.966 7.70359 14.8613 7.5689 14.7266 7.5689C14.6069 7.5689 14.547 7.49406 14.5919 7.41923C14.6368 7.32944 14.5769 7.22468 14.4572 7.17978C14.3225 7.13488 14.2177 6.97026 14.2028 6.83556C14.2028 6.70087 14.128 6.7757 14.0531 7.00019C13.9484 7.28454 13.8286 7.37434 13.664 7.31448C13.4994 7.25462 13.4545 7.28455 13.5293 7.38931C13.649 7.59883 13.4844 7.6138 13.2001 7.43421C13.0504 7.34441 13.1252 7.25461 13.4994 7.11991C13.7688 7.03012 13.9035 6.9104 13.8137 6.8655C13.7089 6.83557 13.6191 6.7308 13.6191 6.65597C13.6191 6.56617 13.6939 6.55121 13.7837 6.61107C13.8735 6.65597 13.8286 6.49134 13.7089 6.23692C13.5742 5.9825 13.3796 5.77297 13.2599 5.77297C13.1552 5.77297 12.9756 5.60834 12.8708 5.39882C12.766 5.18929 12.6164 5.02467 12.5416 5.02467C12.4817 5.02467 12.4218 4.9199 12.4218 4.80018C12.4218 4.68045 12.3171 4.57568 12.1973 4.57568C12.0776 4.57568 11.9728 4.50085 11.9728 4.42602C11.9728 4.32126 11.8681 4.32127 11.6586 4.441C11.4341 4.56072 11.3742 4.56072 11.4341 4.441C11.4939 4.3512 11.449 4.27637 11.3443 4.2614C11.2395 4.2614 11.2694 4.20154 11.4191 4.14167C11.6735 4.05188 11.6586 4.00698 11.3293 3.6478C10.9102 3.19881 10.4014 3.22874 10.2517 3.69269C10.1919 3.84235 10.0123 3.97704 9.84766 3.97704C9.63814 3.97704 9.57827 3.90221 9.63814 3.75255C9.68303 3.63282 9.6531 3.52806 9.57827 3.52806C9.30888 3.52806 9.42861 3.25867 9.71297 3.18384C9.90753 3.13895 10.0273 3.19881 10.0722 3.36344C10.1171 3.52806 10.162 3.4682 10.2517 3.18384C10.3415 2.85459 10.2966 2.68997 10.0123 2.39064C9.8327 2.19609 9.53337 2.03146 9.36875 2.01649C9.18915 2.01649 9.14426 1.9716 9.24902 1.9267C9.36875 1.8818 9.32385 1.76207 9.06942 1.56751C8.87487 1.41785 8.63541 1.28315 8.56058 1.28315C8.48575 1.28315 8.21636 1.0886 7.99187 0.864105C7.75241 0.624648 7.43813 0.385192 7.28847 0.340293C7.06397 0.250497 7.03404 0.295401 7.10888 0.579756C7.19867 0.894043 7.1837 0.894035 6.86942 0.53485L6.54016 0.160699L6.65989 0.53485C6.71976 0.744375 6.82452 0.938934 6.88438 0.983832C7.09391 1.13349 6.98914 1.55254 6.76465 1.46275C6.60003 1.40288 6.5701 1.44778 6.65989 1.56751C6.74969 1.71717 6.68983 1.73213 6.4354 1.6573C6.21091 1.58247 6.13608 1.59744 6.19594 1.71717C6.25581 1.80697 6.40547 1.8818 6.5252 1.8818C6.64492 1.8818 6.71976 1.92669 6.70479 1.98656C6.60003 2.27091 6.97418 2.19609 7.12384 1.89677C7.30343 1.56751 7.51296 1.62738 7.37826 1.9716C7.3184 2.12126 7.37826 2.15119 7.54289 2.09132C7.70752 2.03146 7.78235 2.09133 7.78235 2.30085C7.78235 2.46548 7.67758 2.6301 7.52792 2.66003C7.30343 2.70493 7.30343 2.7199 7.52792 2.91446C7.75241 3.09405 7.78235 3.07908 7.78235 2.86956C7.78235 2.51037 8.18643 2.5852 8.27623 2.95935C8.39595 3.36344 8.26126 3.52806 8.08167 3.22874C7.96194 3.03418 7.93201 3.03419 7.93201 3.24371C7.93201 3.37841 8.0218 3.57296 8.14153 3.66276C8.30616 3.79745 8.36602 3.76752 8.42589 3.49814C8.51568 3.18385 8.54561 3.18384 8.71024 3.40833C8.815 3.54303 9.0395 3.67772 9.20412 3.70766C9.48848 3.75255 9.48847 3.76752 9.14425 4.11174L8.78507 4.47093L9.24902 4.88998C9.81773 5.41379 9.98236 5.44372 9.62317 4.96481C9.47351 4.77025 9.30888 4.63555 9.24902 4.68045C9.17419 4.71038 9.12929 4.63555 9.12929 4.51583C9.12929 4.33623 9.26398 4.27637 9.62317 4.29133C9.87759 4.3063 9.98236 4.33623 9.84766 4.38113C9.698 4.41106 9.57827 4.51583 9.57827 4.59066C9.57827 4.68045 9.66807 4.69542 9.77283 4.63555C9.86263 4.57569 9.90753 4.57568 9.84766 4.65051C9.7878 4.71038 9.84766 4.86004 9.96739 4.97977C10.132 5.1444 10.147 5.26412 10.0273 5.39882C9.89256 5.56344 9.92249 5.57842 10.1619 5.51855C10.3415 5.47366 10.4313 5.36889 10.3715 5.26413C10.3116 5.17433 10.3864 5.20426 10.5361 5.32399C10.8055 5.53351 10.8055 5.54848 10.4613 5.62331C10.147 5.69814 10.132 5.72808 10.3715 5.81787C10.5361 5.87774 10.7307 5.87774 10.8055 5.81787C10.9102 5.75801 10.9252 5.80291 10.8504 5.9376C10.7456 6.11719 10.7606 6.11719 10.9551 5.95256C11.1497 5.78794 11.1946 5.8478 11.2694 6.32671C11.3293 6.62604 11.2994 6.95529 11.2245 7.04508C11.03 7.28454 11.9279 8.3621 12.2273 8.24237C12.4069 8.1825 12.4368 8.25734 12.3769 8.55666C12.332 8.85598 12.4218 9.06551 12.796 9.45462C13.0654 9.72401 13.245 9.99339 13.2001 10.0383C13.1552 10.0832 13.23 10.1131 13.3647 10.1131C13.4994 10.1131 13.6191 10.2179 13.6191 10.3376C13.6191 10.607 13.8885 11.1009 14.2477 11.5199C14.3973 11.6846 14.4871 11.8492 14.4422 11.8791C14.3524 11.9839 12.332 9.9485 12.3769 9.79884C12.4069 9.73898 12.2871 9.64918 12.1375 9.58931C11.9728 9.54441 11.6137 9.2451 11.3293 8.93081C11.03 8.60156 10.6558 8.30223 10.4912 8.24237C10.3116 8.19747 10.1769 8.07775 10.1769 7.98795C10.1769 7.76346 8.38099 5.9376 8.05173 5.83284C7.88711 5.78794 7.79731 5.66821 7.82724 5.57841C7.85718 5.47365 7.69255 5.2791 7.45309 5.1444C7.2286 4.99474 7.03404 4.81514 7.03404 4.72534C7.03404 4.65051 6.92928 4.57568 6.80955 4.57568C6.68983 4.57568 6.58506 4.50085 6.58506 4.42602C6.58506 4.29133 6.4354 4.09677 5.71703 3.3335C5.58233 3.18384 5.38778 3.10901 5.28301 3.13895C5.17825 3.18385 5.10342 3.16888 5.13335 3.10901C5.14832 3.03418 4.99866 2.73486 4.78914 2.43554C4.44492 1.94166 4.08573 1.68724 3.66668 1.6573C3.59185 1.6573 3.51702 1.55255 3.51702 1.41785C3.51702 1.17839 2.39457 0.0260044 2.27484 0.160699C2.24491 0.190631 2.08028 0.160703 1.93062 0.0709062C1.70613 -0.0488222 1.64627 -0.0188882 1.64627 0.17567ZM3.36736 1.8818C3.32246 1.95663 3.20273 2.03146 3.1279 2.03146C3.03811 2.03146 3.02314 1.95663 3.06804 1.8818C3.11294 1.792 3.23266 1.73213 3.30749 1.73213C3.39729 1.73213 3.41226 1.792 3.36736 1.8818ZM8.32112 1.86683C8.44085 1.76207 8.57555 1.73214 8.63541 1.792C8.68031 1.8369 8.65038 1.8818 8.56058 1.8818C8.45582 1.8818 8.38099 1.9716 8.38099 2.07636C8.38099 2.19609 8.27623 2.28588 8.1565 2.28588C8.0218 2.28588 7.932 2.15119 7.94697 1.9716C7.94697 1.792 7.99187 1.74711 8.03677 1.85187C8.09663 2.00153 8.1565 2.00153 8.32112 1.86683ZM9.12929 2.43554C9.12929 2.5403 9.02453 2.58521 8.87487 2.52534C8.71024 2.46548 8.66534 2.48044 8.74017 2.60017C8.80004 2.70494 8.7701 2.77976 8.69527 2.77976C8.47078 2.77976 8.48575 2.28588 8.71024 2.06139C8.9048 1.86683 9.12929 2.07636 9.12929 2.43554ZM9.57827 2.85459C9.57827 2.97432 9.47351 3.01922 9.29391 2.97432C9.05446 2.91446 9.03949 2.85459 9.17419 2.70493C9.38371 2.48044 9.57827 2.55527 9.57827 2.85459ZM10.7007 3.97704C10.7456 4.05187 10.7157 4.1267 10.6409 4.1267C10.5511 4.1267 10.4762 4.05187 10.4762 3.97704C10.4762 3.88725 10.5062 3.82738 10.5361 3.82738C10.581 3.82738 10.6558 3.88725 10.7007 3.97704ZM11.1198 4.72534C11.015 5.14439 10.9252 5.0995 10.9252 4.63555C10.9252 4.42603 10.9851 4.29133 11.0599 4.33623C11.1347 4.38113 11.1647 4.56072 11.1198 4.72534ZM29.9321 4.71038C29.9321 4.78521 29.8273 4.88998 29.6926 4.93487C29.4831 5.0097 29.4682 4.99473 29.6328 4.80018C29.8423 4.54575 29.9321 4.51582 29.9321 4.71038ZM11.4191 5.42875C11.3143 5.68317 11.913 5.69814 12.0177 5.42875C12.0776 5.29406 12.1375 5.30902 12.2572 5.47365C12.3919 5.65324 12.4218 5.66821 12.4218 5.48862C12.4218 5.36889 12.4667 5.32399 12.5116 5.36889C12.5715 5.42876 12.5415 5.56345 12.4518 5.66821C12.347 5.78794 12.3171 5.92264 12.362 5.96754C12.5266 6.13216 11.5089 5.78794 11.2844 5.60835C11.015 5.38386 11.015 5.21923 11.2844 5.21923C11.4041 5.21923 11.464 5.30902 11.4191 5.42875ZM13.0803 6.91039C13.1402 7.07502 13.0953 7.11992 12.9157 7.08999C12.781 7.06006 12.6463 6.95529 12.6014 6.85053C12.5116 6.58114 12.9756 6.62604 13.0803 6.91039ZM11.7334 7.3444C11.6735 7.46413 11.5837 7.524 11.5089 7.4791C11.2994 7.35937 11.3592 7.11991 11.5987 7.11991C11.7334 7.11991 11.7783 7.20971 11.7334 7.3444ZM12.2722 7.89815C12.2722 8.09271 11.9279 7.97298 11.8531 7.74849C11.8232 7.64373 11.883 7.59883 12.0327 7.6587C12.1674 7.7036 12.2722 7.82332 12.2722 7.89815ZM12.7211 8.21244C12.7211 8.48183 12.6912 8.49679 12.5715 8.3172C12.3769 8.01788 12.3769 7.67366 12.5715 7.79339C12.6613 7.83828 12.7211 8.03285 12.7211 8.21244ZM28.1212 8.2723C27.8069 8.67638 27.4777 8.90088 27.343 8.81108C27.2681 8.76619 27.4328 8.57162 27.7022 8.37707C28.2858 7.95802 28.3906 7.92808 28.1212 8.2723ZM13.215 8.51176C13.2599 8.63149 13.2001 8.72128 13.0953 8.72128C12.9905 8.72128 12.9307 8.63149 12.9756 8.51176C13.0205 8.407 13.0654 8.3172 13.0953 8.3172C13.1252 8.3172 13.1701 8.407 13.215 8.51176ZM27.2382 9.1553C27.2382 9.27503 27.1784 9.34986 27.1035 9.30496C27.0287 9.26007 26.9239 9.39476 26.879 9.60428C26.8042 9.88864 26.6994 9.97843 26.5049 9.91857C26.3103 9.87367 26.2505 9.93354 26.2654 10.158C26.2954 10.4723 25.6219 11.1607 25.3076 11.1607C25.2178 11.1607 25.143 11.2805 25.143 11.4301C25.143 11.5798 24.9484 11.7744 24.679 11.8941C24.4096 12.0138 24.1253 12.2982 24.0055 12.5676C23.9008 12.822 23.811 12.9866 23.796 12.9267C23.796 12.7621 23.3021 13.1812 22.1498 14.3635L21.1171 15.4111L20.8178 15.037C20.4287 14.573 20.4287 14.2138 20.8178 14.1091C21.0123 14.0492 21.0872 13.9594 21.0123 13.8397C20.9525 13.7349 20.9674 13.69 21.0722 13.7648C21.147 13.8097 21.4164 13.705 21.6559 13.5104C21.8804 13.3159 22.2246 13.0764 22.4191 12.9716C22.5987 12.8818 22.7484 12.7172 22.7484 12.6125C22.7484 12.5077 22.943 12.3131 23.1674 12.1784C23.3919 12.0438 23.6763 11.7594 23.7811 11.5499C23.9008 11.3403 24.0804 11.1458 24.2001 11.1009C24.3348 11.041 24.3797 11.0859 24.3049 11.2057C24.245 11.2954 24.3348 11.2655 24.4994 11.1159C24.6641 10.9812 24.8586 10.8614 24.9484 10.8614C25.0382 10.8614 25.3375 10.592 25.5919 10.2628C25.8464 9.93353 26.1906 9.66414 26.3552 9.66414C26.5198 9.66414 26.5947 9.58931 26.5498 9.46959C26.4899 9.30496 26.8341 9.02061 27.2083 8.93081C27.2232 8.91585 27.2382 9.02061 27.2382 9.1553ZM13.4694 9.58931C13.4694 9.66414 13.3946 9.63421 13.3198 9.51448C13.245 9.39475 13.1701 9.21516 13.1701 9.14033C13.1701 9.05053 13.245 9.09543 13.3198 9.21516C13.3946 9.33489 13.4694 9.49952 13.4694 9.58931ZM14.8763 12.4478C14.9212 12.5676 14.9062 12.6274 14.8164 12.5825C14.7266 12.5376 14.6667 12.4329 14.6667 12.3431C14.6667 12.1335 14.7715 12.1784 14.8763 12.4478ZM13.3497 22.4302L13.7388 22.939L13.3797 23.3282C13.1701 23.5526 13.0354 23.7322 13.0803 23.7322C13.1252 23.7322 12.8858 24.0016 12.5715 24.3309C12.2422 24.6751 11.9728 25.0493 11.9728 25.169C11.9728 25.2887 11.8531 25.4384 11.7184 25.4833C11.4041 25.603 9.87759 27.0996 9.87759 27.2942C9.87759 27.369 9.60821 27.6384 9.27895 27.9227C8.96467 28.1921 8.72521 28.4615 8.75514 28.5214C8.78507 28.5663 8.65038 28.7309 8.44085 28.8806C8.24629 29.0452 8.08167 29.2397 8.08167 29.3445C8.08167 29.4343 7.91704 29.6139 7.70752 29.7187C7.49799 29.8234 7.33337 29.9731 7.33337 30.0479C7.33337 30.2125 6.80955 30.8261 6.03132 31.6044C5.67213 31.9486 5.38778 32.3527 5.38778 32.4874C5.38778 32.637 5.34288 32.7268 5.29798 32.667C5.14832 32.5173 4.81907 32.9214 4.90886 33.1459C4.95376 33.2806 4.92383 33.3255 4.83403 33.2656C4.66941 33.1608 4.35512 33.3853 3.14287 34.4928C2.76872 34.8221 2.40953 35.1064 2.31974 35.1064C2.24491 35.1064 2.09525 34.9418 1.99048 34.7323C1.85579 34.418 1.85579 34.3581 2.06531 34.3581C2.18504 34.3581 2.25987 34.3132 2.20001 34.2683C2.15511 34.2085 2.20001 33.984 2.31974 33.7595C2.4694 33.4751 2.48436 33.3105 2.3796 33.2058C2.18504 33.0112 2.76872 32.5622 3.2177 32.5622C3.39729 32.5622 3.63675 32.3826 3.77144 32.1432C3.90614 31.9187 4.26533 31.4996 4.56465 31.2153C5.86669 29.988 6.10615 29.7336 6.5252 29.1799C7.33336 28.1023 9.00956 26.1268 9.12929 26.1268C9.18916 26.1268 9.36875 25.9322 9.53337 25.6928C9.68303 25.4533 10.2368 24.7649 10.7756 24.1663C11.3143 23.5676 11.9728 22.8193 12.2572 22.505C12.5266 22.1907 12.796 21.9363 12.8558 21.9363C12.9007 21.9363 13.1252 22.1608 13.3497 22.4302ZM24.5443 22.086C24.5443 22.1608 24.4845 22.2356 24.3947 22.2356C24.3198 22.2356 24.245 22.1608 24.245 22.086C24.245 21.9962 24.3198 21.9363 24.3947 21.9363C24.4845 21.9363 24.5443 21.9962 24.5443 22.086ZM18.8123 27.2642C18.7674 27.3091 18.6327 27.3241 18.528 27.2792C18.4082 27.2343 18.4531 27.1894 18.6178 27.1894C18.7824 27.1744 18.8722 27.2193 18.8123 27.2642ZM25.2926 34.3581C25.2926 34.433 25.2178 34.5078 25.128 34.5078C25.0532 34.5078 25.0232 34.433 25.0681 34.3581C25.113 34.2683 25.1879 34.2085 25.2328 34.2085C25.2627 34.2085 25.2926 34.2683 25.2926 34.3581ZM29.7076 37.3513C29.6627 37.4262 29.543 37.501 29.4682 37.501C29.3784 37.501 29.3634 37.4262 29.4083 37.3513C29.4532 37.2615 29.5729 37.2017 29.6478 37.2017C29.7375 37.2017 29.7525 37.2615 29.7076 37.3513ZM30.9348 37.8303C30.8899 37.95 30.845 37.9051 30.845 37.7405C30.8301 37.5758 30.875 37.486 30.9199 37.5459C30.9648 37.5908 30.9797 37.7255 30.9348 37.8303Z" fill="white"/>
<path fill-rule="evenodd" clip-rule="evenodd" d="M5.80611 0.654558C5.74625 0.879049 5.80611 0.908975 6.1653 0.864077C6.64421 0.789247 6.65918 0.489926 6.18026 0.415096C5.98571 0.385164 5.85101 0.474965 5.80611 0.654558Z" fill="white"/>
<path fill-rule="evenodd" clip-rule="evenodd" d="M10.4771 6.22193C10.4771 6.29676 10.5519 6.37159 10.6417 6.37159C10.7165 6.37159 10.7464 6.29676 10.7015 6.22193C10.6566 6.13213 10.5818 6.07227 10.5369 6.07227C10.507 6.07227 10.4771 6.13213 10.4771 6.22193Z" fill="white"/>
<path fill-rule="evenodd" clip-rule="evenodd" d="M31.4292 38.6982C31.4292 38.7731 31.534 38.803 31.6537 38.7581C31.7734 38.6982 31.8782 38.6384 31.8782 38.6085C31.8782 38.5785 31.7734 38.5486 31.6537 38.5486C31.534 38.5486 31.4292 38.6084 31.4292 38.6982Z" fill="white"/>
</svg>
