<svg width="17" height="16" viewBox="0 0 17 16" fill="none" xmlns="http://www.w3.org/2000/svg">
<path d="M13.8334 6.66665C13.8334 9.99531 10.1407 13.462 8.90069 14.5326C8.78517 14.6195 8.64455 14.6665 8.50002 14.6665C8.35549 14.6665 8.21487 14.6195 8.09935 14.5326C6.85935 13.462 3.16669 9.99531 3.16669 6.66665C3.16669 5.25216 3.72859 3.8956 4.72878 2.89541C5.72898 1.89522 7.08553 1.33331 8.50002 1.33331C9.91451 1.33331 11.2711 1.89522 12.2713 2.89541C13.2715 3.8956 13.8334 5.25216 13.8334 6.66665Z" stroke="#E6BB6C" stroke-width="2" stroke-linecap="round" stroke-linejoin="round"/>
<path d="M8.50002 8.66665C9.60459 8.66665 10.5 7.77122 10.5 6.66665C10.5 5.56208 9.60459 4.66665 8.50002 4.66665C7.39545 4.66665 6.50002 5.56208 6.50002 6.66665C6.50002 7.77122 7.39545 8.66665 8.50002 8.66665Z" stroke="#E6BB6C" stroke-width="2" stroke-linecap="round" stroke-linejoin="round"/>
</svg>
