<svg width="55" height="56" viewBox="0 0 55 56" fill="none" xmlns="http://www.w3.org/2000/svg">
<rect y="0.5" width="55" height="55" rx="27.5" fill="white"/>
<path d="M38 28.9594H39V26.9594H38V28.9594ZM17 26.9594C16.4477 26.9594 16 27.4071 16 27.9594C16 28.5117 16.4477 28.9594 17 28.9594V26.9594ZM24.0769 36.0363V37.0363H26.0769V36.0363H24.0769ZM17.56 27.1627C17.0752 26.8982 16.4677 27.0769 16.2033 27.5617C15.9388 28.0466 16.1175 28.654 16.6023 28.9185L17.56 27.1627ZM26.077 19.9636V18.9636H24.077V19.9636H26.077ZM38 26.9594H17.0812V28.9594H38V26.9594ZM17.0812 26.9594H17V28.9594H17.0812V26.9594ZM26.0769 36.0363C26.0769 34.7802 25.4006 33.6011 24.6028 32.622C23.7851 31.6183 22.7192 30.6791 21.6905 29.8842C20.6559 29.0847 19.6263 28.4065 18.8582 27.9293C18.4732 27.6902 18.1516 27.5002 17.9251 27.3692C17.8118 27.3038 17.7221 27.253 17.66 27.2181C17.6289 27.2007 17.6047 27.1873 17.5879 27.178C17.5795 27.1734 17.5729 27.1697 17.5682 27.1672C17.5659 27.1659 17.5641 27.1649 17.5627 27.1641C17.562 27.1637 17.5614 27.1634 17.561 27.1632C17.5608 27.1631 17.5605 27.1629 17.5604 27.1629C17.5602 27.1628 17.56 27.1627 17.0812 28.0406C16.6023 28.9185 16.6022 28.9184 16.6021 28.9184C16.6021 28.9184 16.6021 28.9183 16.6021 28.9183C16.6021 28.9184 16.6023 28.9185 16.6026 28.9186C16.6032 28.9189 16.6042 28.9195 16.6057 28.9203C16.6087 28.922 16.6136 28.9247 16.6203 28.9284C16.6338 28.9358 16.6545 28.9473 16.682 28.9627C16.737 28.9936 16.8191 29.04 16.9244 29.1009C17.1351 29.2227 17.4382 29.4017 17.8028 29.6282C18.5339 30.0824 19.5033 30.7216 20.4676 31.4668C21.4379 32.2165 22.3709 33.049 23.0523 33.8853C23.7537 34.7461 24.0769 35.4751 24.0769 36.0363H26.0769ZM17.0812 27.9594C17.4559 28.8866 17.4561 28.8865 17.4564 28.8863C17.4566 28.8863 17.4569 28.8862 17.4572 28.886C17.4577 28.8858 17.4584 28.8855 17.4592 28.8852C17.4608 28.8846 17.4629 28.8837 17.4654 28.8827C17.4705 28.8806 17.4776 28.8777 17.4864 28.874C17.5042 28.8667 17.5293 28.8562 17.5613 28.8426C17.6254 28.8155 17.7171 28.7759 17.8326 28.7243C18.0634 28.6213 18.3899 28.4698 18.7802 28.2733C19.5584 27.8816 20.6028 27.3046 21.6537 26.5668C22.6994 25.8327 23.7863 24.9154 24.6198 23.8335C25.4544 22.7502 26.077 21.4453 26.077 19.9636H24.077C24.077 20.8645 23.7001 21.7503 23.0355 22.6129C22.3698 23.477 21.4578 24.2607 20.5045 24.9299C19.5564 25.5955 18.602 26.124 17.8809 26.4869C17.5217 26.6678 17.2235 26.806 17.017 26.8982C16.9138 26.9443 16.8338 26.9788 16.7807 27.0013C16.7542 27.0125 16.7344 27.0207 16.7219 27.0259C16.7157 27.0285 16.7112 27.0303 16.7086 27.0314C16.7074 27.0319 16.7065 27.0322 16.7062 27.0324C16.706 27.0325 16.706 27.0325 16.706 27.0324C16.7061 27.0324 16.7062 27.0324 16.7062 27.0324C16.7064 27.0323 16.7066 27.0322 17.0812 27.9594Z" fill="#585858"/>
</svg>
