<svg width="26" height="25" viewBox="0 0 26 25" fill="none" xmlns="http://www.w3.org/2000/svg">
<path d="M11.8859 1.48359C12.2716 0.82132 13.2284 0.821321 13.6141 1.48359L17.0542 7.38978C17.1955 7.63239 17.4322 7.80441 17.7066 7.86383L24.3868 9.3104C25.1358 9.4726 25.4315 10.3825 24.9208 10.954L20.3667 16.0508C20.1797 16.2602 20.0892 16.5385 20.1175 16.8179L20.806 23.6181C20.8832 24.3806 20.1092 24.943 19.4079 24.6339L13.1532 21.8777C12.8963 21.7645 12.6037 21.7645 12.3468 21.8777L6.09212 24.6339C5.39078 24.943 4.61675 24.3806 4.69396 23.6181L5.38247 16.8179C5.41076 16.5385 5.32032 16.2602 5.13325 16.0508L0.579159 10.954C0.0685047 10.3825 0.364158 9.4726 1.11321 9.3104L7.79337 7.86383C8.06776 7.80441 8.30454 7.63239 8.44584 7.38978L11.8859 1.48359Z" fill="#E6BB6C"/>
</svg>
