<svg width="25" height="25" viewBox="0 0 25 25" fill="none" xmlns="http://www.w3.org/2000/svg">
<path d="M11.6359 1.48359C12.0216 0.82132 12.9784 0.821321 13.3641 1.48359L16.8042 7.38978C16.9455 7.63239 17.1822 7.80441 17.4566 7.86383L24.1368 9.3104C24.8858 9.4726 25.1815 10.3825 24.6708 10.954L20.1167 16.0508C19.9297 16.2602 19.8392 16.5385 19.8675 16.8179L20.556 23.6181C20.6332 24.3806 19.8592 24.943 19.1579 24.6339L12.9032 21.8777C12.6463 21.7645 12.3537 21.7645 12.0968 21.8777L5.84212 24.6339C5.14078 24.943 4.36675 24.3806 4.44396 23.6181L5.13247 16.8179C5.16076 16.5385 5.07032 16.2602 4.88325 16.0508L0.329159 10.954C-0.181495 10.3825 0.114158 9.4726 0.86321 9.3104L7.54337 7.86383C7.81776 7.80441 8.05454 7.63239 8.19584 7.38978L11.6359 1.48359Z" fill="white" fill-opacity="0.7"/>
</svg>
