<svg width="30" height="30" viewBox="0 0 30 30" fill="none" xmlns="http://www.w3.org/2000/svg">
<g clip-path="url(#clip0_150_215)">
<path d="M15 30C23.2843 30 30 23.2843 30 15C30 6.71573 23.2843 0 15 0C6.71573 0 0 6.71573 0 15C0 23.2843 6.71573 30 15 30Z" fill="#D80027"/>
<path d="M18.3858 12.2568L19.6165 13.9528L21.6097 13.3065L20.377 15.0011L21.6076 16.697L19.6151 16.0483L18.3825 17.7428L18.3838 15.6474L16.3912 14.9987L18.3845 14.3524L18.3858 12.2568Z" fill="#F0F0F0"/>
<path d="M15.027 19.239C12.6858 19.239 10.7879 17.3411 10.7879 14.9999C10.7879 12.6587 12.6858 10.7608 15.027 10.7608C15.757 10.7608 16.4438 10.9454 17.0434 11.2703C16.1027 10.3502 14.8162 9.78247 13.3966 9.78247C10.515 9.78247 8.1792 12.1184 8.1792 14.9998C8.1792 17.8813 10.5151 20.2172 13.3966 20.2172C14.8163 20.2172 16.1028 19.6494 17.0434 18.7294C16.4438 19.0544 15.757 19.239 15.027 19.239Z" fill="#F0F0F0"/>
</g>
<defs>
<clipPath id="clip0_150_215">
<rect width="30" height="30" fill="white"/>
</clipPath>
</defs>
</svg>
