<svg width="1920" height="27" viewBox="0 0 1920 27" fill="none" xmlns="http://www.w3.org/2000/svg">
<mask id="path-1-outside-1_43_625" maskUnits="userSpaceOnUse" x="0" y="0" width="1920" height="27" fill="black">
<rect fill="white" width="1920" height="27"/>
<path d="M0 0H1920V25.33H0V0Z"/>
</mask>
<path d="M1920 24.33H0V26.33H1920V24.33Z" fill="black" mask="url(#path-1-outside-1_43_625)"/>
<path d="M25.1282 0.364502H0.198334V12.8295H25.1282V0.364502Z" fill="white"/>
<path d="M523.725 0.364502H498.795V12.8295H523.725V0.364502Z" fill="white"/>
<path d="M473.865 12.8315H498.795V25.2965H473.865V12.8315Z" fill="white"/>
<path d="M972.466 12.8315H997.396V25.2965H972.466V12.8315Z" fill="white"/>
<path d="M1022.33 12.8315H1047.26V25.2965H1022.33V12.8315Z" fill="white"/>
<path d="M1072.18 12.8315H1097.11V25.2965H1072.18V12.8315Z" fill="white"/>
<path d="M1122.04 12.8315H1146.97V25.2965H1122.04V12.8315Z" fill="white"/>
<path d="M1171.9 12.8315H1196.83V25.2965H1171.9V12.8315Z" fill="white"/>
<path d="M74.9877 0.364502H50.0578V12.8295H74.9877V0.364502Z" fill="white"/>
<path d="M573.588 0.364502H548.658V12.8295H573.588V0.364502Z" fill="white"/>
<path d="M424.006 12.8315H448.936V25.2965H424.006V12.8315Z" fill="white"/>
<path d="M922.603 12.8315H947.533V25.2965H922.603V12.8315Z" fill="white"/>
<path d="M124.85 0.364502H99.9199V12.8295H124.85V0.364502Z" fill="white"/>
<path d="M623.447 0.364502H598.517V12.8295H623.447V0.364502Z" fill="white"/>
<path d="M374.147 12.8315H399.077V25.2965H374.147V12.8315Z" fill="white"/>
<path d="M872.744 12.8315H897.674V25.2965H872.744V12.8315Z" fill="white"/>
<path d="M174.707 0.364502H149.777V12.8295H174.707V0.364502Z" fill="white"/>
<path d="M673.304 0.364502H648.374V12.8295H673.304V0.364502Z" fill="white"/>
<path d="M324.287 12.8315H349.217V25.2965H324.287V12.8315Z" fill="white"/>
<path d="M822.888 12.8315H847.818V25.2965H822.888V12.8315Z" fill="white"/>
<path d="M224.566 0.364502H199.636V12.8295H224.566V0.364502Z" fill="white"/>
<path d="M723.167 0.364502H698.237V12.8295H723.167V0.364502Z" fill="white"/>
<path d="M274.428 12.8315H299.358V25.2965H274.428V12.8315Z" fill="white"/>
<path d="M773.025 12.8315H797.955V25.2965H773.025V12.8315Z" fill="white"/>
<path d="M274.429 0.364502H249.499V12.8295H274.429V0.364502Z" fill="white"/>
<path d="M773.026 0.364502H748.096V12.8295H773.026V0.364502Z" fill="white"/>
<path d="M224.569 12.8315H249.499V25.2965H224.569V12.8315Z" fill="white"/>
<path d="M723.166 12.8315H748.096V25.2965H723.166V12.8315Z" fill="white"/>
<path d="M324.288 0.364502H299.358V12.8295H324.288V0.364502Z" fill="white"/>
<path d="M822.885 0.364502H797.955V12.8295H822.885V0.364502Z" fill="white"/>
<path d="M174.706 12.8315H199.636V25.2965H174.706V12.8315Z" fill="white"/>
<path d="M673.307 12.8315H698.237V25.2965H673.307V12.8315Z" fill="white"/>
<path d="M374.147 0.364502H349.217V12.8295H374.147V0.364502Z" fill="white"/>
<path d="M872.748 0.364502H847.818V12.8295H872.748V0.364502Z" fill="white"/>
<path d="M124.847 12.8315H149.777V25.2965H124.847V12.8315Z" fill="white"/>
<path d="M623.444 12.8315H648.374V25.2965H623.444V12.8315Z" fill="white"/>
<path d="M424.007 0.364502H399.077V12.8295H424.007V0.364502Z" fill="white"/>
<path d="M922.604 0.364502H897.674V12.8295H922.604V0.364502Z" fill="white"/>
<path d="M74.9899 12.8315H99.9199V25.2965H74.9899V12.8315Z" fill="white"/>
<path d="M573.587 12.8315H598.517V25.2965H573.587V12.8315Z" fill="white"/>
<path d="M473.866 0.364502H448.936V12.8295H473.866V0.364502Z" fill="white"/>
<path d="M972.463 0.364502H947.533V12.8295H972.463V0.364502Z" fill="white"/>
<path d="M1022.33 0.364502H997.396V12.8295H1022.33V0.364502Z" fill="white"/>
<path d="M1072.19 0.364502H1047.26V12.8295H1072.19V0.364502Z" fill="white"/>
<path d="M1122.04 0.364502H1097.11V12.8295H1122.04V0.364502Z" fill="white"/>
<path d="M1171.9 0.364502H1146.97V12.8295H1171.9V0.364502Z" fill="white"/>
<path d="M25.1279 12.8315H50.0578V25.2965H25.1279V12.8315Z" fill="white"/>
<path d="M523.728 12.8315H548.658V25.2965H523.728V12.8315Z" fill="white"/>
<path d="M50.058 0.364502H25.1281V12.8295H50.058V0.364502Z" fill="black"/>
<path d="M548.656 0.364502H523.726V12.8295H548.656V0.364502Z" fill="black"/>
<path d="M448.938 12.8315H473.868V25.2965H448.938V12.8315Z" fill="black"/>
<path d="M947.537 12.8315H972.467V25.2965H947.537V12.8315Z" fill="black"/>
<path d="M997.393 12.8315H1022.32V25.2965H997.393V12.8315Z" fill="black"/>
<path d="M1047.25 12.8315H1072.18V25.2965H1047.25V12.8315Z" fill="black"/>
<path d="M1097.12 12.8315H1122.05V25.2965H1097.12V12.8315Z" fill="black"/>
<path d="M1146.97 12.8315H1171.9V25.2965H1146.97V12.8315Z" fill="black"/>
<path d="M99.9175 0.364502H74.9875V12.8295H99.9175V0.364502Z" fill="black"/>
<path d="M598.515 0.364502H573.585V12.8295H598.515V0.364502Z" fill="black"/>
<path d="M399.077 12.8315H424.007V25.2965H399.077V12.8315Z" fill="black"/>
<path d="M897.677 12.8315H922.606V25.2965H897.677V12.8315Z" fill="black"/>
<path d="M149.777 0.364502H124.847V12.8295H149.777V0.364502Z" fill="black"/>
<path d="M648.377 0.364502H623.447V12.8295H648.377V0.364502Z" fill="black"/>
<path d="M349.218 12.8315H374.148V25.2965H349.218V12.8315Z" fill="black"/>
<path d="M847.815 12.8315H872.745V25.2965H847.815V12.8315Z" fill="black"/>
<path d="M199.639 0.364502H174.709V12.8295H199.639V0.364502Z" fill="black"/>
<path d="M698.237 0.364502H673.307V12.8295H698.237V0.364502Z" fill="black"/>
<path d="M299.357 12.8315H324.287V25.2965H299.357V12.8315Z" fill="black"/>
<path d="M797.956 12.8315H822.886V25.2965H797.956V12.8315Z" fill="black"/>
<path d="M249.498 0.364502H224.568V12.8295H249.498V0.364502Z" fill="black"/>
<path d="M748.096 0.364502H723.166V12.8295H748.096V0.364502Z" fill="black"/>
<path d="M249.496 12.8315H274.426V25.2965H249.496V12.8315Z" fill="black"/>
<path d="M748.095 12.8315H773.025V25.2965H748.095V12.8315Z" fill="black"/>
<path d="M299.356 0.364502H274.426V12.8295H299.356V0.364502Z" fill="black"/>
<path d="M797.955 0.364502H773.025V12.8295H797.955V0.364502Z" fill="black"/>
<path d="M199.638 12.8315H224.568V25.2965H199.638V12.8315Z" fill="black"/>
<path d="M698.236 12.8315H723.166V25.2965H698.236V12.8315Z" fill="black"/>
<path d="M349.217 0.364502H324.287V12.8295H349.217V0.364502Z" fill="black"/>
<path d="M847.816 0.364502H822.886V12.8295H847.816V0.364502Z" fill="black"/>
<path d="M149.779 12.8315H174.709V25.2965H149.779V12.8315Z" fill="black"/>
<path d="M648.377 12.8315H673.307V25.2965H648.377V12.8315Z" fill="black"/>
<path d="M399.078 0.364502H374.148V12.8295H399.078V0.364502Z" fill="black"/>
<path d="M897.675 0.364502H872.745V12.8295H897.675V0.364502Z" fill="black"/>
<path d="M99.9172 12.8315H124.847V25.2965H99.9172V12.8315Z" fill="black"/>
<path d="M598.517 12.8315H623.447V25.2965H598.517V12.8315Z" fill="black"/>
<path d="M448.937 0.364502H424.007V12.8295H448.937V0.364502Z" fill="black"/>
<path d="M947.536 0.364502H922.606V12.8295H947.536V0.364502Z" fill="black"/>
<path d="M50.0576 12.8315H74.9875V25.2965H50.0576V12.8315Z" fill="black"/>
<path d="M548.655 12.8315H573.585V25.2965H548.655V12.8315Z" fill="black"/>
<path d="M498.798 0.364502H473.868V12.8295H498.798V0.364502Z" fill="black"/>
<path d="M997.397 0.364502H972.467V12.8295H997.397V0.364502Z" fill="black"/>
<path d="M1047.25 0.364502H1022.32V12.8295H1047.25V0.364502Z" fill="black"/>
<path d="M1097.11 0.364502H1072.18V12.8295H1097.11V0.364502Z" fill="black"/>
<path d="M1146.98 0.364502H1122.05V12.8295H1146.98V0.364502Z" fill="black"/>
<path d="M1196.83 0.364502H1171.9V12.8295H1196.83V0.364502Z" fill="black"/>
<path d="M0.198198 12.8315H25.1281V25.2965H0.198198V12.8315Z" fill="black"/>
<path d="M498.796 12.8315H523.726V25.2965H498.796V12.8315Z" fill="black"/>
<path d="M1221.76 0.364502H1196.83V12.8295H1221.76V0.364502Z" fill="white"/>
<path d="M1720.36 0.364502H1695.43V12.8295H1720.36V0.364502Z" fill="white"/>
<path d="M1670.5 12.8315H1695.43V25.2965H1670.5V12.8315Z" fill="white"/>
<path d="M1271.62 0.364502H1246.69V12.8295H1271.62V0.364502Z" fill="white"/>
<path d="M1770.22 0.364502H1745.29V12.8295H1770.22V0.364502Z" fill="white"/>
<path d="M1620.65 12.8315H1645.58V25.2965H1620.65V12.8315Z" fill="white"/>
<path d="M1321.49 0.364502H1296.56V12.8295H1321.49V0.364502Z" fill="white"/>
<path d="M1820.08 0.364502H1795.15V12.8295H1820.08V0.364502Z" fill="white"/>
<path d="M1570.78 12.8315H1595.71V25.2965H1570.78V12.8315Z" fill="white"/>
<path d="M1371.34 0.364502H1346.41V12.8295H1371.34V0.364502Z" fill="white"/>
<path d="M1869.93 0.364502H1845V12.8295H1869.93V0.364502Z" fill="white"/>
<path d="M1520.92 12.8315H1545.85V25.2965H1520.92V12.8315Z" fill="white"/>
<path d="M1421.2 0.364502H1396.27V12.8295H1421.2V0.364502Z" fill="white"/>
<path d="M1919.8 0.364502H1894.87V12.8295H1919.8V0.364502Z" fill="white"/>
<path d="M1471.07 12.8315H1496V25.2965H1471.07V12.8315Z" fill="white"/>
<path d="M1471.07 0.364502H1446.14V12.8295H1471.07V0.364502Z" fill="white"/>
<path d="M1421.21 12.8315H1446.14V25.2965H1421.21V12.8315Z" fill="white"/>
<path d="M1520.93 0.364502H1496V12.8295H1520.93V0.364502Z" fill="white"/>
<path d="M1371.34 12.8315H1396.27V25.2965H1371.34V12.8315Z" fill="white"/>
<path d="M1869.94 12.8315H1894.87V25.2965H1869.94V12.8315Z" fill="white"/>
<path d="M1570.78 0.364502H1545.85V12.8295H1570.78V0.364502Z" fill="white"/>
<path d="M1321.48 12.8315H1346.41V25.2965H1321.48V12.8315Z" fill="white"/>
<path d="M1820.07 12.8315H1845V25.2965H1820.07V12.8315Z" fill="white"/>
<path d="M1620.64 0.364502H1595.71V12.8295H1620.64V0.364502Z" fill="white"/>
<path d="M1271.63 12.8315H1296.56V25.2965H1271.63V12.8315Z" fill="white"/>
<path d="M1770.22 12.8315H1795.15V25.2965H1770.22V12.8315Z" fill="white"/>
<path d="M1670.51 0.364502H1645.58V12.8295H1670.51V0.364502Z" fill="white"/>
<path d="M1221.76 12.8315H1246.69V25.2965H1221.76V12.8315Z" fill="white"/>
<path d="M1720.36 12.8315H1745.29V25.2965H1720.36V12.8315Z" fill="white"/>
<path d="M1246.69 0.364502H1221.76V12.8295H1246.69V0.364502Z" fill="black"/>
<path d="M1745.29 0.364502H1720.36V12.8295H1745.29V0.364502Z" fill="black"/>
<path d="M1645.58 12.8315H1670.51V25.2965H1645.58V12.8315Z" fill="black"/>
<path d="M1296.55 0.364502H1271.62V12.8295H1296.55V0.364502Z" fill="black"/>
<path d="M1795.15 0.364502H1770.22V12.8295H1795.15V0.364502Z" fill="black"/>
<path d="M1595.71 12.8315H1620.64V25.2965H1595.71V12.8315Z" fill="black"/>
<path d="M1346.41 0.364502H1321.48V12.8295H1346.41V0.364502Z" fill="black"/>
<path d="M1845.02 0.364502H1820.09V12.8295H1845.02V0.364502Z" fill="black"/>
<path d="M1545.85 12.8315H1570.78V25.2965H1545.85V12.8315Z" fill="black"/>
<path d="M1396.27 0.364502H1371.34V12.8295H1396.27V0.364502Z" fill="black"/>
<path d="M1894.88 0.364502H1869.95V12.8295H1894.88V0.364502Z" fill="black"/>
<path d="M1495.99 12.8315H1520.92V25.2965H1495.99V12.8315Z" fill="black"/>
<path d="M1446.13 0.364502H1421.2V12.8295H1446.13V0.364502Z" fill="black"/>
<path d="M1446.14 12.8315H1471.07V25.2965H1446.14V12.8315Z" fill="black"/>
<path d="M1496 0.364502H1471.07V12.8295H1496V0.364502Z" fill="black"/>
<path d="M1396.27 12.8315H1421.2V25.2965H1396.27V12.8315Z" fill="black"/>
<path d="M1894.87 12.8315H1919.8V25.2965H1894.87V12.8315Z" fill="black"/>
<path d="M1545.85 0.364502H1520.92V12.8295H1545.85V0.364502Z" fill="black"/>
<path d="M1346.41 12.8315H1371.34V25.2965H1346.41V12.8315Z" fill="black"/>
<path d="M1845.02 12.8315H1869.95V25.2965H1845.02V12.8315Z" fill="black"/>
<path d="M1595.71 0.364502H1570.78V12.8295H1595.71V0.364502Z" fill="black"/>
<path d="M1296.55 12.8315H1321.48V25.2965H1296.55V12.8315Z" fill="black"/>
<path d="M1795.16 12.8315H1820.09V25.2965H1795.16V12.8315Z" fill="black"/>
<path d="M1645.57 0.364502H1620.64V12.8295H1645.57V0.364502Z" fill="black"/>
<path d="M1246.69 12.8315H1271.62V25.2965H1246.69V12.8315Z" fill="black"/>
<path d="M1745.29 12.8315H1770.22V25.2965H1745.29V12.8315Z" fill="black"/>
<path d="M1695.44 0.364502H1670.51V12.8295H1695.44V0.364502Z" fill="black"/>
<path d="M1196.83 12.8315H1221.76V25.2965H1196.83V12.8315Z" fill="black"/>
<path d="M1695.43 12.8315H1720.36V25.2965H1695.43V12.8315Z" fill="black"/>
</svg>
